solid OpenSCAD_Model
  facet normal -1.000000 0.000000 0.000000
    outer loop
      vertex 0.000000 15.000000 3.000000
      vertex 0.000000 15.000000 0.000000
      vertex 0.000000 3.000000 3.000000
    endloop
  endfacet
  facet normal -1.000000 0.000000 -0.000000
    outer loop
      vertex 0.000000 0.000000 0.000000
      vertex 0.000000 0.000000 10.000000
      vertex 0.000000 3.000000 3.000000
    endloop
  endfacet
  facet normal -1.000000 -0.000000 0.000000
    outer loop
      vertex 0.000000 0.000000 0.000000
      vertex 0.000000 3.000000 3.000000
      vertex 0.000000 15.000000 0.000000
    endloop
  endfacet
  facet normal -1.000000 0.000000 0.000000
    outer loop
      vertex 0.000000 3.000000 3.000000
      vertex 0.000000 0.000000 10.000000
      vertex 0.000000 3.000000 10.000000
    endloop
  endfacet
  facet normal 0.000000 -1.000000 0.000000
    outer loop
      vertex 0.000000 0.000000 10.000000
      vertex 0.000000 0.000000 0.000000
      vertex 20.000000 0.000000 0.000000
    endloop
  endfacet
  facet normal 0.000000 -1.000000 0.000000
    outer loop
      vertex 20.000000 0.000000 10.000000
      vertex 0.000000 0.000000 10.000000
      vertex 20.000000 0.000000 0.000000
    endloop
  endfacet
  facet normal -0.000000 -0.000000 -1.000000
    outer loop
      vertex 0.000000 0.000000 0.000000
      vertex 0.000000 15.000000 0.000000
      vertex 20.000000 0.000000 0.000000
    endloop
  endfacet
  facet normal 0.000000 0.000000 -1.000000
    outer loop
      vertex 20.000000 0.000000 0.000000
      vertex 0.000000 15.000000 0.000000
      vertex 20.000000 15.000000 0.000000
    endloop
  endfacet
  facet normal 0.000000 1.000000 0.000000
    outer loop
      vertex 0.000000 15.000000 0.000000
      vertex 0.000000 15.000000 3.000000
      vertex 20.000000 15.000000 0.000000
    endloop
  endfacet
  facet normal 0.000000 1.000000 0.000000
    outer loop
      vertex 20.000000 15.000000 0.000000
      vertex 0.000000 15.000000 3.000000
      vertex 20.000000 15.000000 3.000000
    endloop
  endfacet
  facet normal 0.000000 -0.000000 1.000000
    outer loop
      vertex 6.500000 5.000000 3.000000
      vertex 0.000000 3.000000 3.000000
      vertex 20.000000 3.000000 3.000000
    endloop
  endfacet
  facet normal -0.000000 -0.000000 1.000000
    outer loop
      vertex 13.500000 5.000000 3.000000
      vertex 6.500000 5.000000 3.000000
      vertex 20.000000 3.000000 3.000000
    endloop
  endfacet
  facet normal 0.000000 -0.000000 1.000000
    outer loop
      vertex 0.000000 15.000000 3.000000
      vertex 0.000000 3.000000 3.000000
      vertex 6.500000 5.000000 3.000000
    endloop
  endfacet
  facet normal 0.000000 -0.000000 1.000000
    outer loop
      vertex 13.500000 11.000000 3.000000
      vertex 13.500000 5.000000 3.000000
      vertex 20.000000 3.000000 3.000000
    endloop
  endfacet
  facet normal 0.000000 0.000000 1.000000
    outer loop
      vertex 0.000000 15.000000 3.000000
      vertex 6.500000 5.000000 3.000000
      vertex 6.500000 11.000000 3.000000
    endloop
  endfacet
  facet normal 0.000000 0.000000 1.000000
    outer loop
      vertex 20.000000 15.000000 3.000000
      vertex 13.500000 11.000000 3.000000
      vertex 20.000000 3.000000 3.000000
    endloop
  endfacet
  facet normal 0.000000 0.000000 1.000000
    outer loop
      vertex 20.000000 15.000000 3.000000
      vertex 0.000000 15.000000 3.000000
      vertex 13.500000 11.000000 3.000000
    endloop
  endfacet
  facet normal 0.000000 0.000000 1.000000
    outer loop
      vertex 6.500000 11.000000 3.000000
      vertex 13.500000 11.000000 3.000000
      vertex 0.000000 15.000000 3.000000
    endloop
  endfacet
  facet normal 0.000000 1.000000 0.000000
    outer loop
      vertex 0.000000 3.000000 3.000000
      vertex 0.000000 3.000000 10.000000
      vertex 20.000000 3.000000 3.000000
    endloop
  endfacet
  facet normal 0.000000 1.000000 0.000000
    outer loop
      vertex 20.000000 3.000000 3.000000
      vertex 0.000000 3.000000 10.000000
      vertex 20.000000 3.000000 10.000000
    endloop
  endfacet
  facet normal 0.000000 -0.000000 1.000000
    outer loop
      vertex 0.000000 3.000000 10.000000
      vertex 0.000000 0.000000 10.000000
      vertex 20.000000 0.000000 10.000000
    endloop
  endfacet
  facet normal 0.000000 0.000000 1.000000
    outer loop
      vertex 20.000000 3.000000 10.000000
      vertex 0.000000 3.000000 10.000000
      vertex 20.000000 0.000000 10.000000
    endloop
  endfacet
  facet normal 1.000000 0.000000 -0.000000
    outer loop
      vertex 20.000000 3.000000 3.000000
      vertex 20.000000 0.000000 0.000000
      vertex 20.000000 15.000000 0.000000
    endloop
  endfacet
  facet normal 1.000000 0.000000 0.000000
    outer loop
      vertex 20.000000 3.000000 3.000000
      vertex 20.000000 3.000000 10.000000
      vertex 20.000000 0.000000 10.000000
    endloop
  endfacet
  facet normal 1.000000 0.000000 -0.000000
    outer loop
      vertex 20.000000 0.000000 10.000000
      vertex 20.000000 0.000000 0.000000
      vertex 20.000000 3.000000 3.000000
    endloop
  endfacet
  facet normal 1.000000 0.000000 0.000000
    outer loop
      vertex 20.000000 15.000000 3.000000
      vertex 20.000000 3.000000 3.000000
      vertex 20.000000 15.000000 0.000000
    endloop
  endfacet
  facet normal -0.000000 -0.707107 0.707107
    outer loop
      vertex 6.500000 11.000000 9.000000
      vertex 6.500000 5.000000 3.000000
      vertex 13.500000 5.000000 3.000000
    endloop
  endfacet
  facet normal -0.000000 -0.707107 0.707107
    outer loop
      vertex 13.500000 11.000000 9.000000
      vertex 6.500000 11.000000 9.000000
      vertex 13.500000 5.000000 3.000000
    endloop
  endfacet
  facet normal -1.000000 0.000000 0.000000
    outer loop
      vertex 6.500000 11.000000 3.000000
      vertex 6.500000 5.000000 3.000000
      vertex 6.500000 11.000000 9.000000
    endloop
  endfacet
  facet normal 1.000000 0.000000 0.000000
    outer loop
      vertex 13.500000 11.000000 9.000000
      vertex 13.500000 5.000000 3.000000
      vertex 13.500000 11.000000 3.000000
    endloop
  endfacet
  facet normal 0.000000 1.000000 -0.000000
    outer loop
      vertex 6.500000 11.000000 9.000000
      vertex 13.500000 11.000000 9.000000
      vertex 6.500000 11.000000 3.000000
    endloop
  endfacet
  facet normal 0.000000 1.000000 0.000000
    outer loop
      vertex 6.500000 11.000000 3.000000
      vertex 13.500000 11.000000 9.000000
      vertex 13.500000 11.000000 3.000000
    endloop
  endfacet
endsolid OpenSCAD_Model
